<svg width="501" height="204" viewBox="0 0 501 204" fill="none" xmlns="http://www.w3.org/2000/svg">
<path d="M492.167 98.7591H464.199L424.753 5.26274C424.736 5.22487 424.715 5.19224 424.698 5.15436C424.556 4.82926 424.396 4.51468 424.221 4.21272C424.167 4.11908 424.116 4.02333 424.06 3.93285C423.901 3.68139 423.729 3.4415 423.549 3.20898C423.4 3.01539 423.244 2.83338 423.083 2.65662C423.059 2.63031 423.033 2.60507 423.009 2.57981C422.451 1.98326 421.833 1.4898 421.168 1.10262C421.135 1.08263 421.101 1.06474 421.066 1.0458C420.724 0.852211 420.372 0.685976 420.01 0.547095C419.869 0.492384 419.73 0.434525 419.587 0.387179C419.444 0.341938 419.301 0.305106 419.157 0.268282C418.948 0.212519 418.736 0.16623 418.521 0.128353C418.407 0.108363 418.295 0.0873269 418.18 0.0725971C417.847 0.0294598 417.51 0 417.166 0H83.833C83.4893 0 83.1523 0.0294598 82.8193 0.0725971C82.7051 0.0873269 82.5918 0.109415 82.4785 0.128353C82.2637 0.16623 82.0518 0.212519 81.8428 0.268282C81.6982 0.305106 81.5557 0.341938 81.4131 0.387179C81.2695 0.434525 81.1309 0.492384 80.9902 0.547095C80.6289 0.685976 80.2773 0.852211 79.9336 1.0458C79.8994 1.06474 79.8652 1.08263 79.832 1.10262C79.167 1.49085 78.5488 1.98326 77.9912 2.57981C77.9668 2.60612 77.9414 2.63031 77.917 2.65662C77.7559 2.83338 77.6006 3.01433 77.4512 3.20898C77.2705 3.44045 77.0986 3.68139 76.9404 3.93285C76.8848 4.02333 76.833 4.11908 76.7793 4.21272C76.6025 4.51468 76.4443 4.82926 76.3018 5.15436C76.2852 5.19224 76.2637 5.22382 76.2471 5.26274L36.8008 98.7591H8.83301C4.23047 98.7591 0.5 102.778 0.5 107.737C0.5 112.696 4.23047 116.715 8.83301 116.715H26.7491H112.558H75.5L171.562 116.715L66.062 116.715C92.167 116.715 112.733 116.715 75.5 116.715H23.8673C176.605 116.715 54.2314 116.715 58.834 116.715H122.978C127.581 116.715 161.163 116.715 154.226 116.715H132.344C142.431 116.715 117.16 116.715 112.558 116.715H100.5H92.167H408.834H287.244H402.481C397.879 116.715 300.932 116.715 362.558 116.715H394.592C402.481 116.715 338.837 116.715 343.439 116.715H421.066C425.669 116.715 467.359 116.715 467.359 116.715H478.166C369.376 116.715 440.417 116.715 435.815 116.715H455.831H425.5H379.463H492.167C496.77 116.715 500.5 112.696 500.5 107.737C500.5 102.778 496.77 98.7591 492.167 98.7591ZM388.441 98.7591L417.166 30.6737L445.891 98.7591H388.441ZM167.167 30.6737L195.892 98.7591H138.441L167.167 30.6737ZM125.5 86.0399L96.7754 17.9546H154.226L125.5 86.0399ZM180.108 17.9556H237.559L208.834 86.0409L180.108 17.9556ZM250.5 30.6737L279.225 98.7591H221.774L250.5 30.6737ZM263.441 17.9556H320.892L292.167 86.0409L263.441 17.9556ZM333.833 30.6737L362.558 98.7591H305.107L333.833 30.6737ZM346.775 17.9556H404.226L375.5 86.0399L346.775 17.9556ZM83.833 30.6737L112.558 98.7591H55.1084L83.833 30.6737Z" fill="black"/>
<path d="M134.3 166.73C134.3 165.11 134.42 163.61 134.66 162.23C134.96 160.85 135.32 159.56 135.74 158.36L141.5 143.6C142.1 142.1 142.76 140.84 143.48 139.82C144.2 138.74 145.46 138.2 147.26 138.2H156.08C157.76 138.2 158.96 138.74 159.68 139.82C160.4 140.84 161.09 142.13 161.75 143.69L167.96 158.36C168.38 159.56 168.71 160.85 168.95 162.23C169.25 163.61 169.4 165.11 169.4 166.73V169.52H134.3V166.73ZM148.7 148.1L144.47 161.78H158.6L154.37 148.1C154.13 147.56 153.86 147.17 153.56 146.93C153.32 146.69 153.02 146.57 152.66 146.57H150.41C150.05 146.57 149.72 146.69 149.42 146.93C149.18 147.17 148.94 147.56 148.7 148.1ZM169.4 185.9H170.3V166.73C170.3 165.05 170.15 163.52 169.85 162.14C169.61 160.7 169.25 159.32 168.77 158L162.56 143.33C161.84 141.59 161.06 140.15 160.22 139.01C159.44 137.87 158.06 137.3 156.08 137.3H147.26C145.22 137.3 143.78 137.87 142.94 139.01C142.1 140.15 141.35 141.56 140.69 143.24L134.93 158C134.45 159.32 134.06 160.7 133.76 162.14C133.52 163.52 133.4 165.05 133.4 166.73V185.9H134.3V170.42H169.4V185.9ZM143.57 190.76C143.57 191.9 143.3 192.74 142.76 193.28C142.28 193.76 141.47 194 140.33 194H127.1C125.96 194 125.12 193.76 124.58 193.28C124.1 192.74 123.86 191.9 123.86 190.76V167C123.86 165.2 124.13 163.13 124.67 160.79C125.27 158.45 126.17 155.72 127.37 152.6L135.2 132.17C135.56 131.15 136.1 130.4 136.82 129.92C137.6 129.44 138.59 129.2 139.79 129.2H164C165.14 129.2 166.07 129.44 166.79 129.92C167.57 130.4 168.14 131.15 168.5 132.17L176.33 152.6C177.53 155.72 178.4 158.45 178.94 160.79C179.54 163.13 179.84 165.2 179.84 167V190.76C179.84 191.9 179.57 192.74 179.03 193.28C178.55 193.76 177.74 194 176.6 194H163.01C161.81 194 160.91 193.76 160.31 193.28C159.77 192.74 159.5 191.9 159.5 190.76V178.16H143.57V190.76ZM224.522 194H194.192C193.052 194 192.212 193.76 191.672 193.28C191.192 192.74 190.952 191.9 190.952 190.76V132.44C190.952 131.3 191.192 130.49 191.672 130.01C192.212 129.47 193.052 129.2 194.192 129.2H224.522C232.022 129.2 237.572 130.7 241.172 133.7C244.832 136.7 246.662 141.32 246.662 147.56V175.64C246.662 181.88 244.832 186.5 241.172 189.5C237.572 192.5 232.022 194 224.522 194ZM200.762 185.9H222.542C225.602 185.9 228.092 185.6 230.012 185C231.932 184.34 233.402 183.47 234.422 182.39C235.442 181.31 236.102 180.02 236.402 178.52C236.762 177.02 236.942 175.4 236.942 173.66V149.81C236.942 148.07 236.762 146.45 236.402 144.95C236.042 143.39 235.352 142.07 234.332 140.99C233.312 139.85 231.842 138.95 229.922 138.29C228.062 137.63 225.602 137.3 222.542 137.3H200.762V185.9ZM222.542 138.2C225.362 138.2 227.642 138.5 229.382 139.1C231.182 139.7 232.562 140.51 233.522 141.53C234.482 142.55 235.142 143.78 235.502 145.22C235.862 146.66 236.042 148.19 236.042 149.81V173.66C236.042 175.28 235.862 176.81 235.502 178.25C235.202 179.63 234.572 180.83 233.612 181.85C232.652 182.81 231.272 183.59 229.472 184.19C227.732 184.73 225.422 185 222.542 185H201.662V138.2H222.542ZM211.382 146.39V176.99H222.092C223.532 176.99 224.582 176.63 225.242 175.91C225.962 175.19 226.322 174.08 226.322 172.58V150.71C226.322 149.21 225.962 148.13 225.242 147.47C224.582 146.75 223.532 146.39 222.092 146.39H211.382ZM295.901 194H261.341C260.201 194 259.361 193.76 258.821 193.28C258.341 192.74 258.101 191.9 258.101 190.76V132.44C258.101 131.3 258.341 130.49 258.821 130.01C259.361 129.47 260.201 129.2 261.341 129.2H290.051C295.931 129.2 300.281 130.34 303.101 132.62C305.921 134.84 307.331 138.29 307.331 142.97V147.29C307.331 149.81 306.881 151.88 305.981 153.5C305.141 155.06 303.821 156.23 302.021 157.01C305.861 157.37 308.711 158.69 310.571 160.97C312.431 163.25 313.361 166.58 313.361 170.96V179.24C313.361 184.28 311.921 188 309.041 190.4C306.221 192.8 301.841 194 295.901 194ZM268.091 185.9H292.301C294.821 185.9 296.861 185.69 298.421 185.27C299.981 184.79 301.151 184.16 301.931 183.38C302.771 182.6 303.341 181.67 303.641 180.59C303.941 179.45 304.091 178.22 304.091 176.9V171.14C304.091 169.64 303.941 168.26 303.641 167C303.401 165.74 302.861 164.66 302.021 163.76C301.181 162.8 299.981 162.08 298.421 161.6C296.861 161.06 294.851 160.79 292.391 160.79C294.971 160.13 296.561 159.05 297.161 157.55C297.821 156.05 298.151 154.4 298.151 152.6V146.84C298.151 145.52 298.001 144.29 297.701 143.15C297.401 142.01 296.831 141.02 295.991 140.18C295.151 139.28 293.951 138.59 292.391 138.11C290.831 137.57 288.821 137.3 286.361 137.3H268.091V185.9ZM286.361 138.2C290.861 138.2 293.801 139.04 295.181 140.72C296.561 142.4 297.251 144.44 297.251 146.84V152.6C297.251 153.68 297.131 154.73 296.891 155.75C296.711 156.71 296.231 157.58 295.451 158.36C294.731 159.08 293.651 159.68 292.211 160.16C290.771 160.58 288.821 160.79 286.361 160.79H268.991V138.2H286.361ZM278.351 144.5V154.22H286.001C287.141 154.22 287.981 153.92 288.521 153.32C289.121 152.72 289.421 151.82 289.421 150.62V148.1C289.421 146.9 289.121 146 288.521 145.4C287.981 144.8 287.141 144.5 286.001 144.5H278.351ZM292.391 161.69C296.891 161.69 299.801 162.59 301.121 164.39C302.501 166.19 303.191 168.44 303.191 171.14V176.9C303.191 179.36 302.501 181.34 301.121 182.84C299.741 184.28 296.801 185 292.301 185H268.991V161.69H292.391ZM278.351 168.08V178.7H290.051C291.191 178.7 292.031 178.4 292.571 177.8C293.171 177.2 293.471 176.3 293.471 175.1V171.59C293.471 170.39 293.171 169.52 292.571 168.98C292.031 168.38 291.191 168.08 290.051 168.08H278.351ZM353.375 194H324.935C323.795 194 322.955 193.76 322.415 193.28C321.935 192.74 321.695 191.9 321.695 190.76V180.23C321.695 179.09 321.935 178.28 322.415 177.8C322.955 177.26 323.795 176.99 324.935 176.99H349.145C349.925 176.99 350.495 176.75 350.855 176.27C351.275 175.73 351.485 175.1 351.485 174.38C351.485 173.36 351.275 172.61 350.855 172.13C350.495 171.65 349.925 171.38 349.145 171.32L335.645 169.43C331.445 168.83 328.055 167.45 325.475 165.29C322.955 163.13 321.695 159.53 321.695 154.49V145.04C321.695 139.94 323.345 136.04 326.645 133.34C329.945 130.58 334.505 129.2 340.325 129.2H365.525C366.665 129.2 367.475 129.47 367.955 130.01C368.495 130.49 368.765 131.3 368.765 132.44V143.15C368.765 144.29 368.495 145.13 367.955 145.67C367.475 146.15 366.665 146.39 365.525 146.39H344.555C343.775 146.39 343.175 146.66 342.755 147.2C342.335 147.68 342.125 148.31 342.125 149.09C342.125 149.87 342.335 150.53 342.755 151.07C343.175 151.61 343.775 151.91 344.555 151.97L357.965 153.77C362.165 154.37 365.555 155.75 368.135 157.91C370.715 160.07 372.005 163.67 372.005 168.71V178.16C372.005 183.26 370.325 187.19 366.965 189.95C363.665 192.65 359.135 194 353.375 194ZM360.665 137.3H340.685C337.925 137.3 335.705 138.08 334.025 139.64C332.345 141.14 331.505 143.09 331.505 145.49V152.87C331.505 155.33 331.985 157.04 332.945 158C333.965 158.9 335.255 159.5 336.815 159.8L355.805 163.67C357.485 164.03 358.805 164.75 359.765 165.83C360.785 166.85 361.295 168.77 361.295 171.59V176.81C361.295 179.21 360.455 181.19 358.775 182.75C357.155 184.25 354.965 185 352.205 185H329.795V185.9H352.205C355.265 185.9 357.695 185.06 359.495 183.38C361.295 181.64 362.195 179.45 362.195 176.81V171.59C362.195 168.47 361.595 166.31 360.395 165.11C359.255 163.91 357.785 163.13 355.985 162.77L336.995 158.9C335.615 158.66 334.505 158.12 333.665 157.28C332.825 156.44 332.405 154.97 332.405 152.87V145.49C332.405 143.39 333.155 141.65 334.655 140.27C336.155 138.89 338.165 138.2 340.685 138.2H360.665V137.3Z" fill="#EA6363"/>
</svg>
